<svg id="visual" viewBox="0 0 900 450" width="900" height="450" xmlns="http://www.w3.org/2000/svg" xmlns:xlink="http://www.w3.org/1999/xlink" version="1.1"><rect x="0" y="0" width="900" height="450" fill="#001220"></rect><path d="M0 318L21.5 309.5C43 301 86 284 128.8 286.8C171.7 289.7 214.3 312.3 257.2 314.5C300 316.7 343 298.3 385.8 290.3C428.7 282.3 471.3 284.7 514.2 284.8C557 285 600 283 642.8 281.8C685.7 280.7 728.3 280.3 771.2 282.8C814 285.3 857 290.7 878.5 293.3L900 296L900 451L878.5 451C857 451 814 451 771.2 451C728.3 451 685.7 451 642.8 451C600 451 557 451 514.2 451C471.3 451 428.7 451 385.8 451C343 451 300 451 257.2 451C214.3 451 171.7 451 128.8 451C86 451 43 451 21.5 451L0 451Z" fill="#fa7268"></path><path d="M0 298L21.5 307.8C43 317.7 86 337.3 128.8 344.5C171.7 351.7 214.3 346.3 257.2 340.3C300 334.3 343 327.7 385.8 326.2C428.7 324.7 471.3 328.3 514.2 328C557 327.7 600 323.3 642.8 322.7C685.7 322 728.3 325 771.2 325.5C814 326 857 324 878.5 323L900 322L900 451L878.5 451C857 451 814 451 771.2 451C728.3 451 685.7 451 642.8 451C600 451 557 451 514.2 451C471.3 451 428.7 451 385.8 451C343 451 300 451 257.2 451C214.3 451 171.7 451 128.8 451C86 451 43 451 21.5 451L0 451Z" fill="#ef5f67"></path><path d="M0 336L21.5 336.2C43 336.3 86 336.7 128.8 341.7C171.7 346.7 214.3 356.3 257.2 363.2C300 370 343 374 385.8 368.5C428.7 363 471.3 348 514.2 346C557 344 600 355 642.8 355.2C685.7 355.3 728.3 344.7 771.2 343.3C814 342 857 350 878.5 354L900 358L900 451L878.5 451C857 451 814 451 771.2 451C728.3 451 685.7 451 642.8 451C600 451 557 451 514.2 451C471.3 451 428.7 451 385.8 451C343 451 300 451 257.2 451C214.3 451 171.7 451 128.8 451C86 451 43 451 21.5 451L0 451Z" fill="#e34c67"></path><path d="M0 388L21.5 389.3C43 390.7 86 393.3 128.8 394.3C171.7 395.3 214.3 394.7 257.2 392.3C300 390 343 386 385.8 384.8C428.7 383.7 471.3 385.3 514.2 389C557 392.7 600 398.3 642.8 398.3C685.7 398.3 728.3 392.7 771.2 387C814 381.3 857 375.7 878.5 372.8L900 370L900 451L878.5 451C857 451 814 451 771.2 451C728.3 451 685.7 451 642.8 451C600 451 557 451 514.2 451C471.3 451 428.7 451 385.8 451C343 451 300 451 257.2 451C214.3 451 171.7 451 128.8 451C86 451 43 451 21.5 451L0 451Z" fill="#d53867"></path><path d="M0 426L21.5 420.7C43 415.3 86 404.7 128.8 404.7C171.7 404.7 214.3 415.3 257.2 415.7C300 416 343 406 385.8 406.2C428.7 406.3 471.3 416.7 514.2 418.8C557 421 600 415 642.8 413.5C685.7 412 728.3 415 771.2 416.8C814 418.7 857 419.3 878.5 419.7L900 420L900 451L878.5 451C857 451 814 451 771.2 451C728.3 451 685.7 451 642.8 451C600 451 557 451 514.2 451C471.3 451 428.7 451 385.8 451C343 451 300 451 257.2 451C214.3 451 171.7 451 128.8 451C86 451 43 451 21.5 451L0 451Z" fill="#c62368"></path></svg>